<svg xmlns="http://www.w3.org/2000/svg" viewBox="0 0 240 200" fill="none" stroke="#1a1a1a" stroke-width="2" stroke-linecap="round" stroke-linejoin="round">
  <!-- Cap base (head part) -->
  <path d="M60 95 Q60 80 75 78 L165 78 Q180 80 180 95 L180 115 Q180 130 165 132 Q120 140 75 132 Q60 130 60 115 Z" fill="#003D7A"/>

  <!-- Cap top (mortarboard) -->
  <path d="M15 78 L120 48 L225 78 L120 108 Z" fill="#003D7A"/>
  <path d="M15 78 L120 108 L120 48 Z" fill="#002a56" stroke="#1a1a1a"/>
  <path d="M225 78 L120 108 L120 48 Z" fill="#1a4e8c" stroke="#1a1a1a"/>

  <!-- Button on top -->
  <circle cx="120" cy="78" r="4" fill="#D4AF37" stroke="#1a1a1a"/>

  <!-- Tassel cord -->
  <path d="M120 78 Q145 90 165 100 Q175 105 178 120" stroke="#D4AF37" stroke-width="2" fill="none"/>

  <!-- Tassel head -->
  <ellipse cx="178" cy="125" rx="6" ry="5" fill="#D4AF37" stroke="#1a1a1a"/>

  <!-- Tassel strands -->
  <g stroke="#D4AF37" stroke-width="1.5">
    <line x1="174" y1="128" x2="172" y2="155"/>
    <line x1="176" y1="129" x2="175" y2="158"/>
    <line x1="178" y1="130" x2="178" y2="160"/>
    <line x1="180" y1="129" x2="181" y2="158"/>
    <line x1="182" y1="128" x2="184" y2="155"/>
  </g>
  <!-- Tassel end cap -->
  <ellipse cx="178" cy="160" rx="8" ry="3" fill="#D4AF37" stroke="#1a1a1a"/>
</svg>
