<svg xmlns="http://www.w3.org/2000/svg" viewBox="0 0 1920 400" width="100%" preserveAspectRatio="none">
  <!-- Layer back: picos bajos -->
  <path fill="#0f172a" fill-opacity="0.15" d="M0,400 L0,260 L80,230 L160,200 L240,220 L320,180 L420,210 L520,170 L620,205 L720,175 L820,215 L920,185 L1020,200 L1120,170 L1220,210 L1320,180 L1420,220 L1520,190 L1620,210 L1720,175 L1820,205 L1920,195 L1920,400 Z"/>
  <!-- Layer mid: picos medios -->
  <path fill="#003D7A" fill-opacity="0.35" d="M0,400 L0,220 L70,180 L160,140 L250,175 L340,130 L440,165 L540,120 L640,155 L740,130 L840,170 L940,135 L1040,160 L1140,125 L1240,165 L1340,130 L1440,160 L1540,140 L1640,170 L1740,125 L1840,155 L1920,145 L1920,400 Z"/>
  <!-- Layer front: picos altos -->
  <path fill="#001f3f" fill-opacity="0.7" d="M0,400 L0,180 L90,120 L180,60 L260,130 L360,40 L460,110 L560,30 L660,100 L760,55 L860,115 L960,65 L1060,105 L1160,45 L1260,120 L1360,70 L1450,40 L1550,100 L1650,55 L1740,110 L1830,50 L1920,105 L1920,400 Z"/>
</svg>
